<svg xmlns="http://www.w3.org/2000/svg" width="75" height="75" viewBox="0 0 75 75">
  <g id="Group_58208" data-name="Group 58208" transform="translate(-444 -663)">
    <rect id="Rectangle_152619" data-name="Rectangle 152619" width="75" height="75" rx="15" transform="translate(444 663)" fill="#e3ebfc"/>
    <g id="IC_Surrender_Certificate" data-name="IC_Surrender Certificate" transform="translate(452 671)">
      <rect id="Rectangle_152838" data-name="Rectangle 152838" width="60" height="60" fill="none"/>
      <path id="Union_45" data-name="Union 45" d="M3.165,47.165c-.025-.017-.046-.046-.072-.052A3.779,3.779,0,0,1,0,43.028V3.862A3.5,3.5,0,0,1,1.3.951,10.915,10.915,0,0,1,3.165,0H24.711a4.729,4.729,0,0,1,2.182,1.475q3.1,3.2,6.242,6.35A3.482,3.482,0,0,1,34.216,10.5c-.025.967,0,1.935-.007,2.9,0,.536-.263.859-.676.864s-.677-.318-.679-.851c0-1.014-.013-2.027,0-3.04.006-.355-.093-.481-.457-.475-1.3.021-2.595.011-3.892.008a3.777,3.777,0,0,1-4.042-4.1q0-1.935,0-3.869V1.38H3.879A2.373,2.373,0,0,0,1.359,3.941q0,19.644,0,39.289a2.375,2.375,0,0,0,2.529,2.551q13.219,0,26.435,0a2.385,2.385,0,0,0,2.528-2.6q0-7.6,0-15.2a4.127,4.127,0,0,1,.007-.461.67.67,0,0,1,1.329-.066,2.267,2.267,0,0,1,.022.5V43.02a3.785,3.785,0,0,1-3.091,4.092.235.235,0,0,0-.072.053ZM25.873,6.422a2.2,2.2,0,0,0,2.116,2.072c.574.039,1.153.035,1.729.032.237,0,.472,0,.709,0,.445,0,.891,0,1.294,0v0l-5.867-5.99C25.855,3.8,25.794,5.117,25.873,6.422ZM8.352,41.909a7.842,7.842,0,0,1,.383-1.126c.321-.857.652-1.711.974-2.569a1.85,1.85,0,0,0,.036-.347,3.527,3.527,0,0,0-.936.429c-.91.844-1.8,1.713-2.658,2.613-.427.449-.76.992-1.147,1.481a.673.673,0,0,1-.959.174.689.689,0,0,1-.129-.983,19.829,19.829,0,0,1,3.733-4.172,3.288,3.288,0,0,1,1.966-.841,1.355,1.355,0,0,1,1.459,1.686,7.864,7.864,0,0,1-.311,1.2c-.122.375-.285.735-.46,1.175.448-.252.83-.471,1.217-.684a3.175,3.175,0,0,1,3.731.2,5.321,5.321,0,0,0,3.238,1.121.662.662,0,0,1,.734.69.7.7,0,0,1-.8.683,6.222,6.222,0,0,1-3.271-.92c-.3-.184-.592-.368-.876-.57a1.534,1.534,0,0,0-1.709-.152c-.77.414-1.5.893-2.255,1.346a6.343,6.343,0,0,1-.851.512.938.938,0,0,1-.354.072A.793.793,0,0,1,8.352,41.909ZM19.4,40.715a1.465,1.465,0,0,1-.513-1.679,24.527,24.527,0,0,1,3.258-6.685C26.507,26.2,30.8,20.01,35.122,13.833a1.865,1.865,0,0,1,1.17-.872.67.67,0,0,0,.342-.263c.284-.378.543-.774.821-1.156a1.293,1.293,0,0,1,1.868-.369,12.658,12.658,0,0,1,1.067.777,1.318,1.318,0,0,1,.281,1.809c-.162.259-.346.5-.519.754a1.927,1.927,0,0,0-.491,1.271,3.77,3.77,0,0,1-.442,1.272v0c.2.147.457.333.707.525a1.608,1.608,0,0,1,.388,2.31c-.933,1.359-1.885,2.705-2.833,4.051a.691.691,0,0,1-1.01.26.713.713,0,0,1-.093-1.055c.879-1.266,1.752-2.537,2.654-3.784.264-.365.3-.6-.126-.831a6.1,6.1,0,0,1-.561-.393c-.11.151-.215.29-.315.434C34.026,24.3,30.005,30.015,26.02,35.757A23.155,23.155,0,0,1,21.13,40.7a1.392,1.392,0,0,1-.865.309A1.432,1.432,0,0,1,19.4,40.715Zm.8-1.1c2.889-1.886,4.788-4.634,6.638-7.483l-1.87-1.354C22.941,33.5,20.989,36.215,20.2,39.613Zm15.977-24.9Q31.091,21.983,26,29.255c-.084.119-.154.247-.242.39.643.466,1.256.908,1.889,1.366.118-.161.219-.293.313-.428q1.943-2.773,3.884-5.549,3.135-4.48,6.275-8.955c.251-.355.252-.576-.131-.809-.335-.2-.641-.459-.96-.69-.225-.163-.351-.25-.455-.25C36.454,14.33,36.364,14.451,36.182,14.711ZM37.8,13.437l.959.686c.266-.382.508-.727.771-1.105l-.951-.7ZM4.982,9.912A.676.676,0,0,1,4.223,9.2c.013-.406.283-.652.764-.657,1.084-.009,2.168,0,3.252,0v0c1.1,0,2.2-.021,3.3.017a.92.92,0,0,1,.648.376.742.742,0,0,1-.048.666.835.835,0,0,1-.605.305q-1.8.019-3.6.017Q6.458,9.919,4.982,9.912Zm3.249-4.15v0H5.07a.743.743,0,0,1-.809-.453.664.664,0,0,1,.5-.908,2.556,2.556,0,0,1,.494-.03q2.98,0,5.961,0c.105,0,.211,0,.316,0a.712.712,0,0,1,.746.7.694.694,0,0,1-.754.684c-.477.007-.955.008-1.433.008C9.473,5.765,8.852,5.762,8.231,5.762Z" transform="translate(9.987 6.88)" fill="#4365d6" stroke="#4365d6" stroke-width="0.8"/>
    </g>
  </g>
</svg>
