<svg xmlns="http://www.w3.org/2000/svg" width="75" height="75" viewBox="0 0 75 75">
  <g id="Group_58207" data-name="Group 58207" transform="translate(-444 -663)">
    <rect id="Rectangle_152619" data-name="Rectangle 152619" width="75" height="75" rx="15" transform="translate(444 663)" fill="#e3ebfc"/>
    <g id="IC_Identity_Certificate" data-name="IC_Identity Certificate" transform="translate(452 671)">
      <g id="Group_57317" data-name="Group 57317" transform="translate(-904.5 -3216.8)">
        <path id="Union_44" data-name="Union 44" d="M3.641,29.226A3.653,3.653,0,0,1,0,25.573V3.654A3.653,3.653,0,0,1,3.641,0H42.97a3.651,3.651,0,0,1,3.64,3.654V25.573a3.651,3.651,0,0,1-3.64,3.654ZM2.095,2.1a2.2,2.2,0,0,0-.638,1.549V25.573a2.184,2.184,0,0,0,2.184,2.191H42.97a2.186,2.186,0,0,0,2.183-2.191V3.654A2.186,2.186,0,0,0,42.97,1.463H3.641A2.187,2.187,0,0,0,2.095,2.1ZM15.2,22.752a11.445,11.445,0,1,1,8.11,3.37A11.531,11.531,0,0,1,15.2,22.752ZM16.225,7.51a9.992,9.992,0,1,0,7.081-2.943A10.071,10.071,0,0,0,16.225,7.51ZM31.686,24.477a12.861,12.861,0,0,0,1.454-1.463h7.281a.731.731,0,0,1,0,1.463Zm-25.494,0a.731.731,0,0,1,0-1.463h7.277a13.141,13.141,0,0,0,1.458,1.463Zm28.46-3.654a12.894,12.894,0,0,0,.68-1.46h5.09a.73.73,0,0,1,0,1.46Zm-28.46,0a.73.73,0,0,1,0-1.46h5.087a13.263,13.263,0,0,0,.683,1.46Zm22.947-1.353A6.065,6.065,0,0,0,25.2,14.577a4.724,4.724,0,0,0,1.429-.974,7.58,7.58,0,0,1,3.949,5.651.736.736,0,0,1-.616.832.646.646,0,0,1-.107.006A.728.728,0,0,1,29.139,19.471Zm-12.5.613a.733.733,0,0,1-.613-.83A7.579,7.579,0,0,1,19.979,13.6a4.731,4.731,0,0,0,1.428.974,6,6,0,0,0-2.647,1.9,6.1,6.1,0,0,0-1.289,3,.73.73,0,0,1-.722.62A.72.72,0,0,1,16.644,20.084ZM35.979,17.17a13.189,13.189,0,0,0,.205-1.46h4.237a.73.73,0,0,1,0,1.46Zm-29.787,0a.73.73,0,0,1,0-1.46h4.237a12.529,12.529,0,0,0,.205,1.46Zm16.688-3.683-.1-.017a3.6,3.6,0,0,1-.381-.084c-.007,0-.015,0-.02-.006a3.407,3.407,0,0,1-.42-.156l-.009-.006a3.468,3.468,0,0,1-.391-.211,3.278,3.278,0,1,1,3.492,0,3.219,3.219,0,0,1-.39.211l-.01.006a3.586,3.586,0,0,1-.415.156l-.023.006a3.365,3.365,0,0,1-.382.084l-.1.017a3.023,3.023,0,0,1-.854,0Zm-.859-4.55a1.827,1.827,0,0,0,1.286,3.119,1.833,1.833,0,0,0,1.822-1.827,1.837,1.837,0,0,0-.533-1.292,1.818,1.818,0,0,0-2.575,0Zm14.164,4.579a13.189,13.189,0,0,0-.205-1.46h4.442a.73.73,0,0,1,0,1.46Zm-29.992,0a.73.73,0,0,1,0-1.46h4.442a12.528,12.528,0,0,0-.205,1.46Zm29.14-3.654a12.893,12.893,0,0,0-.68-1.46h5.77a.73.73,0,0,1,0,1.46Zm-29.14,0a.73.73,0,0,1,0-1.46h5.77a12.726,12.726,0,0,0-.68,1.46ZM33.14,6.212a12.86,12.86,0,0,0-1.454-1.463h8.735a.731.731,0,0,1,0,1.463Zm-26.948,0a.731.731,0,0,1,0-1.463h8.735a13.141,13.141,0,0,0-1.458,1.463Z" transform="translate(911.502 3235.348)" fill="#4365d6" stroke="#4365d6" stroke-width="1"/>
        <g id="Rectangle_34865" data-name="Rectangle 34865" transform="translate(915 3228.8)" fill="none" stroke="#4365d6" stroke-width="2">
          <path d="M3,0H36.467a3,3,0,0,1,3,3V7.467a0,0,0,0,1,0,0H0a0,0,0,0,1,0,0V3A3,3,0,0,1,3,0Z" stroke="none"/>
          <path d="M3,1H36.467a2,2,0,0,1,2,2V5.467a1,1,0,0,1-1,1H2a1,1,0,0,1-1-1V3A2,2,0,0,1,3,1Z" fill="none"/>
        </g>
      </g>
      <rect id="Rectangle_152837" data-name="Rectangle 152837" width="60" height="60" fill="none"/>
    </g>
  </g>
</svg>
