<svg xmlns="http://www.w3.org/2000/svg" width="75" height="75" viewBox="0 0 75 75">
  <g id="Group_58206" data-name="Group 58206" transform="translate(-444 -663)">
    <rect id="Rectangle_152619" data-name="Rectangle 152619" width="75" height="75" rx="15" transform="translate(444 663)" fill="#e3ebfc"/>
    <g id="IC_Police_Clearance_Certificate_PCC_" data-name="IC_Police Clearance Certificate (PCC)" transform="translate(452 671)">
      <rect id="Rectangle_152844" data-name="Rectangle 152844" width="60" height="60" fill="none"/>
      <path id="Union_43" data-name="Union 43" d="M1.9,54.9a6.19,6.19,0,0,1-1.349-1.06A2.941,2.941,0,0,1,.06,52.324C0,51.194.025,46.5.035,44.522c-.362-4.446,2.13-8.638,5.98-9.89a36.553,36.553,0,0,1,3.86-.844q1.458-.3,2.918-.586a1.1,1.1,0,0,1,.574-.011c.437.172.632-.088.684-.472a14.858,14.858,0,0,0,.1-1.7.5.5,0,0,0-.211-.323,9.643,9.643,0,0,1-3.865-6.774.481.481,0,0,0-.283-.322A2.446,2.446,0,0,1,7.9,21c-.007-.572,0-1.145,0-1.716a2.739,2.739,0,0,1,.617-1.758.91.91,0,0,0,.191-.507c.017-1.216.021-2.432,0-3.647a.827.827,0,0,0-.289-.518c-.521-.448-1.119-.8-1.595-1.3a3.464,3.464,0,0,1-.695-3.919A9.591,9.591,0,0,1,8.889,3.95a15.519,15.519,0,0,1,21.07.353A9.768,9.768,0,0,1,32.11,7.117,3.735,3.735,0,0,1,31.2,12a3.357,3.357,0,0,1-.8.6,1.087,1.087,0,0,0-.669,1.271c.056.692.017,1.394.011,2.091A4.389,4.389,0,0,0,30.194,18a5.586,5.586,0,0,1,.037,4.394,1.9,1.9,0,0,1-1.485,1.175c-.249.05-.344.135-.383.423a9.609,9.609,0,0,1-3.769,6.663.845.845,0,0,0-.278.6,12.358,12.358,0,0,0,.179,1.682.47.47,0,0,0,.328.3c.558.065,1.128.028,1.677.132q2.708.512,5.4,1.1c3.205.7,5.959,3.981,6.411,7.626a14.707,14.707,0,0,1,.106,1.762c.011,2.575-.046,5.151.023,7.723.043,1.628-.449,2.767-1.878,3.328ZM33.14,46.816c.01.142,0,.286,0,.429v6.049c1.005,0,1.93.01,2.853,0,.612-.01.96-.4.961-1.082,0-3.038.01-6.077-.017-9.115a13.96,13.96,0,0,0-.234-1.753c-1.758.884-2.614.656-3.78-.948l-.122-.168c-1.047-1.432-1.112-2.252-.276-3.9-.3-.1-.592-.212-.888-.275-1.114-.237-2.238-.421-3.344-.7-.466-.117-.694.035-.946.436-.952,1.512-1.931,3-2.909,4.5a1.573,1.573,0,0,1-1.937.824c-.4-.165-.593-.031-.8.285a2.386,2.386,0,0,1-.318.406.96.96,0,0,0-.238.907c.29,2.173.548,4.351.822,6.526.168,1.341.346,2.679.52,4.024h9.188V51.24c0-1.466,0-2.931,0-4.4,0-.532.266-.842.684-.861h.042C32.826,45.98,33.105,46.3,33.14,46.816ZM1.5,52.113c0,.815.331,1.174,1.073,1.179.891.006,1.782,0,2.745,0V47.177a4.257,4.257,0,0,1,.006-.429c.051-.5.359-.794.78-.766s.669.34.67.876c.008,1.77,0,3.54,0,5.31v1.094H15.96c.107-.809.222-1.633.326-2.458.338-2.688.66-5.381,1.021-8.066a1.1,1.1,0,0,0-.281-1c-.218-.237-.405-.508-.6-.755-1.425.391-1.8.236-2.65-1.067-.906-1.4-1.822-2.783-2.71-4.193a.66.66,0,0,0-.829-.381c-1.14.273-2.294.469-3.441.709-.283.06-.556.173-.863.271a7.5,7.5,0,0,1,.412.88,2.808,2.808,0,0,1-.289,2.45c-.2.307-.418.593-.632.885-1.065,1.452-2.094,1.69-3.668.777-.087.624-.192,1.213-.243,1.807-.035.406-.01.818-.018,1.227C1.5,46.158,1.494,51.012,1.5,52.113Zm15.948,1.153h3.568c-.443-3.506-.882-6.979-1.323-10.478h-.923ZM17.9,40.307c.667,1.208,1.891,1.225,2.683.019a2.053,2.053,0,0,0-1.347-.586A2.083,2.083,0,0,0,17.9,40.307ZM33.71,38.892c.187.269.382.532.579.792.559.74,1.083.763,1.75.043a7.367,7.367,0,0,0-2.105-2.538A1.132,1.132,0,0,0,33.71,38.892Zm-31.359.735c.692.815,1.25.809,1.8.082.228-.3.459-.6.666-.922A1.08,1.08,0,0,0,4.39,37.15Zm22.47-4.494c-.437.423-.928.777-1.4,1.161l-2.734,2.25c.683.323,1.31.6,1.92.914.326.168.521.1.729-.227.844-1.332,1.711-2.646,2.567-3.969a2.521,2.521,0,0,0,.145-.311,1.236,1.236,0,0,0-.536-.142A.983.983,0,0,0,24.821,35.132Zm-12.453-.158c.97,1.5,1.915,2.963,2.879,4.415a.428.428,0,0,0,.412.134c.69-.294,1.366-.628,2.092-.97-.167-.148-.288-.262-.415-.367-1.233-1.016-2.48-2.012-3.694-3.055a1.076,1.076,0,0,0-.711-.311A1.266,1.266,0,0,0,12.368,34.974Zm2.733-.638,4.13,3.4,4.127-3.4c-.232-.908-.441-1.729-.651-2.549-3,.955-3.24.955-6.957,0ZM9.375,19.2c-.03.552-.018,1.107-.014,1.661,0,.868.255,1.138,1.053,1.154.836.017,1,.173,1.063,1.07a8.109,8.109,0,0,0,3.385,6.356,7.562,7.562,0,0,0,11.329-3.106,9.337,9.337,0,0,0,.8-3.394c.043-.69.264-.9.892-.926a4.2,4.2,0,0,0,.534-.027.732.732,0,0,0,.657-.737c.03-.712.028-1.428,0-2.141-.018-.4-.233-.639-.626-.469a4.2,4.2,0,0,0-.995.52,1.016,1.016,0,0,1-1.211.236,1.21,1.21,0,0,1-.574-1.2c.009-.549,0-1.1,0-1.677a22,22,0,0,1-12.878-.007v1.776a1.148,1.148,0,0,1-.6,1.127.985.985,0,0,1-1.13-.21,3.488,3.488,0,0,0-.985-.545.942.942,0,0,0-.3-.063C9.512,18.6,9.4,18.791,9.375,19.2Zm17.8-1.828L28.265,17V15.219C27.029,15.912,27,15.968,27.178,17.376ZM10.2,17l1.078.372c.2-1.359.054-1.636-1.078-2.114Zm12.695-5.228a.7.7,0,0,1,.615.711.717.717,0,0,1-.5.813,2.1,2.1,0,0,1-.625.065q-5.623,0-11.246,0c-.163,0-.326.017-.6.032a7.62,7.62,0,0,0,3.421,1.795,20.628,20.628,0,0,0,8.649.419A11.2,11.2,0,0,0,27,14.132c.3-.186.562-.428.843-.645a1.624,1.624,0,0,0-.725-.123c-.228,0-.455.008-.682,0a.8.8,0,0,1-.845-.824.778.778,0,0,1,.869-.78c.582-.008,1.164,0,1.824,0,0-.643,0-1.211,0-1.78,0-.738-.179-1-.823-1.17A28.259,28.259,0,0,0,16.767,7.625c-1.988.252-3.952.765-5.916,1.216a1.029,1.029,0,0,0-.627.7,18.624,18.624,0,0,0-.03,2.218H22.576A2.181,2.181,0,0,1,22.892,11.773ZM28.07,7.322a2.426,2.426,0,0,1,1.671,2.416c.008.443,0,.886,0,1.4,1.553-.974,1.846-2.11.872-3.612A11.523,11.523,0,0,0,28.77,5.338a14.077,14.077,0,0,0-18.316-.663A9.581,9.581,0,0,0,7.562,8.021a2.149,2.149,0,0,0,1.156,3.055c0-.474-.009-.936,0-1.4a2.512,2.512,0,0,1,1.649-2.387,26.5,26.5,0,0,1,8.483-1.377A32.681,32.681,0,0,1,28.07,7.322ZM9.308,50.837a1.213,1.213,0,0,1-1.238-1.28c-.035-.765-.034-1.536,0-2.3a1.2,1.2,0,0,1,1.238-1.278q1.872-.021,3.744,0a1.2,1.2,0,0,1,1.231,1.33q.026,1.1,0,2.2a1.22,1.22,0,0,1-1.231,1.334h-1.9c-.376,0-.753,0-1.129,0C9.787,50.843,9.548,50.842,9.308,50.837ZM9.553,49.2H12.8V47.626H9.553Zm15.872,1.637a1.211,1.211,0,0,1-1.246-1.315c-.019-.749-.019-1.5,0-2.249a1.185,1.185,0,0,1,1.165-1.291c1.28-.021,2.561-.019,3.841,0a1.19,1.19,0,0,1,1.2,1.258c.037.783.038,1.572,0,2.355a1.2,1.2,0,0,1-1.217,1.245c-.032,0-.065,0-.1,0h-1.8l-1.12,0C25.91,50.843,25.667,50.841,25.424,50.837Zm.234-1.649h3.263V47.616H25.658Z" transform="translate(10.5 2.5)" fill="#4365d6" stroke="#4365d6" stroke-width="0.5"/>
    </g>
  </g>
</svg>
