<svg xmlns="http://www.w3.org/2000/svg" xmlns:xlink="http://www.w3.org/1999/xlink" width="75.023" height="75.512" viewBox="0 0 75.023 75.512">
  <defs>
    <clipPath id="clip-path">
      <rect id="Rectangle_152618" data-name="Rectangle 152618" width="75.023" height="75.023" rx="8" fill="#fff" stroke="#707070" stroke-width="1"/>
    </clipPath>
  </defs>
  <g id="Group_56259" data-name="Group 56259" transform="translate(0 0.488)">
    <rect id="Rectangle_152619" data-name="Rectangle 152619" width="75" height="75" rx="15" transform="translate(0.023 -0.488)" fill="#fff0d5"/>
    <g id="IC_CHECK_APPOINTMENT_AVAILABILITY" data-name="IC_CHECK APPOINTMENT AVAILABILITY" transform="translate(8.023 7.512)">
      <g id="Group_57316" data-name="Group 57316" transform="translate(-1052 -1249)">
        <rect id="Rectangle_152842" data-name="Rectangle 152842" width="60" height="60" transform="translate(1052 1249)" fill="none"/>
        <g id="Group_55939" data-name="Group 55939" transform="translate(-64.19 1029.269)">
          <g id="Group_55933" data-name="Group 55933" transform="translate(1123.581 224.081)">
            <g id="Group_55931" data-name="Group 55931" transform="translate(3.61 3.649)">
              <g id="Union_49" data-name="Union 49" transform="translate(10560.841 1047.88)" fill="none">
                <path d="M-10555.841-1004.876a5,5,0,0,1-5-5v-28.272a5,5,0,0,1,5-5h2.248v-3.358a1.375,1.375,0,0,1,1.378-1.376,1.375,1.375,0,0,1,1.376,1.376v3.358h18.41v-3.358a1.376,1.376,0,0,1,1.378-1.376,1.374,1.374,0,0,1,1.375,1.376v3.358h2.1a5,5,0,0,1,5,5v28.272a5,5,0,0,1-5,5Z" stroke="none"/>
                <path d="M -10527.5712890625 -1007.375610351562 C -10526.19140625 -1007.375610351562 -10525.0693359375 -1008.496520996094 -10525.0693359375 -1009.874328613281 L -10525.0693359375 -1038.146362304688 C -10525.0693359375 -1039.524169921875 -10526.19140625 -1040.64501953125 -10527.5712890625 -1040.64501953125 L -10555.8408203125 -1040.64501953125 C -10557.2197265625 -1040.64501953125 -10558.341796875 -1039.524169921875 -10558.341796875 -1038.146362304688 L -10558.341796875 -1009.874328613281 C -10558.341796875 -1008.496520996094 -10557.2197265625 -1007.375610351562 -10555.8408203125 -1007.375610351562 L -10527.5712890625 -1007.375610351562 M -10527.5712890625 -1004.875610351562 L -10555.8408203125 -1004.875610351562 C -10558.6025390625 -1004.875610351562 -10560.841796875 -1007.112609863281 -10560.841796875 -1009.874328613281 L -10560.841796875 -1038.146362304688 C -10560.841796875 -1040.908081054688 -10558.6025390625 -1043.14501953125 -10555.8408203125 -1043.14501953125 L -10553.5927734375 -1043.14501953125 L -10553.5927734375 -1046.503173828125 C -10553.5927734375 -1047.263793945312 -10552.9775390625 -1047.878784179688 -10552.21484375 -1047.878784179688 C -10551.4541015625 -1047.878784179688 -10550.8388671875 -1047.263793945312 -10550.8388671875 -1046.503173828125 L -10550.8388671875 -1043.14501953125 L -10532.4287109375 -1043.14501953125 L -10532.4287109375 -1046.503173828125 C -10532.4287109375 -1047.263793945312 -10531.8115234375 -1047.878784179688 -10531.05078125 -1047.878784179688 C -10530.2900390625 -1047.878784179688 -10529.67578125 -1047.263793945312 -10529.67578125 -1046.503173828125 L -10529.67578125 -1043.14501953125 L -10527.5712890625 -1043.14501953125 C -10524.8095703125 -1043.14501953125 -10522.5693359375 -1040.908081054688 -10522.5693359375 -1038.146362304688 L -10522.5693359375 -1009.874328613281 C -10522.5693359375 -1007.112609863281 -10524.8095703125 -1004.875610351562 -10527.5712890625 -1004.875610351562 Z" stroke="none" fill="#ff973e"/>
              </g>
              <path id="Union_50" data-name="Union 50" d="M-10546.068-1031.5a1,1,0,0,1-1-1v-2.205a1,1,0,0,1,1-1h2.783a1,1,0,0,1,1,1v2.205a1,1,0,0,1-1,1Zm-6.96,0a1,1,0,0,1-1-1v-2.205a1,1,0,0,1,1-1h2.786a1,1,0,0,1,1,1v2.205a1,1,0,0,1-1,1Zm-6.812,0a1,1,0,0,1-1-1v-2.205a1,1,0,0,1,1-1h2.637a1,1,0,0,1,1,1v2.205a1,1,0,0,1-1,1Zm20.729-5.942a1,1,0,0,1-1-1v-2.057a1,1,0,0,1,1-1h2.641a1,1,0,0,1,1,1v2.057a1,1,0,0,1-1,1Zm-13.917,0a1,1,0,0,1-1-1v-2.057a1,1,0,0,1,1-1h2.786a1,1,0,0,1,1,1v2.057a1,1,0,0,1-1,1Zm-6.812,0a1,1,0,0,1-1-1v-2.057a1,1,0,0,1,1-1h2.637a1,1,0,0,1,1,1v2.057a1,1,0,0,1-1,1Zm20.729-6.234a1,1,0,0,1-1-1v-2.205a1,1,0,0,1,1-1h2.641a1,1,0,0,1,1,1v2.205a1,1,0,0,1-1,1Zm-6.957,0a1,1,0,0,1-1-1v-2.205a1,1,0,0,1,1-1h2.783a1,1,0,0,1,1,1v2.205a1,1,0,0,1-1,1Zm-6.96,0a1,1,0,0,1-1-1v-2.205a1,1,0,0,1,1-1h2.786a1,1,0,0,1,1,1v2.205a1,1,0,0,1-1,1Z" transform="translate(10567.363 1063.558)" fill="#ff973e"/>
              <path id="Path_18164" data-name="Path 18164" d="M201.475,12331.685l1.332,1.312,2.976-3.007" transform="translate(-180.942 -12307.404)" fill="none" stroke="#ff973e" stroke-linecap="round" stroke-linejoin="round" stroke-width="1"/>
            </g>
          </g>
        </g>
      </g>
    </g>
  </g>
</svg>
