<svg xmlns="http://www.w3.org/2000/svg" xmlns:xlink="http://www.w3.org/1999/xlink" width="75.023" height="75.512" viewBox="0 0 75.023 75.512">
  <defs>
    <clipPath id="clip-path">
      <rect id="Rectangle_152618" data-name="Rectangle 152618" width="75.023" height="75.023" rx="8" fill="#fff" stroke="#707070" stroke-width="1"/>
    </clipPath>
  </defs>
  <g id="Group_57319" data-name="Group 57319" transform="translate(0 0.488)">
    <rect id="Rectangle_152619" data-name="Rectangle 152619" width="75" height="75" rx="15" transform="translate(0.023 -0.488)" fill="#e0efff"/>
    <g id="IC_LOCATOR" transform="translate(8.023 7.512)">
      <rect id="Rectangle_152410" data-name="Rectangle 152410" width="60" height="60" fill="none"/>
      <g id="Group_55935" data-name="Group 55935" transform="translate(4.719 4.719)">
        <path id="Path_18563" data-name="Path 18563" d="M12.929,0C13.8.179,14.7.293,15.541.546,22.9,2.757,25.957,10.584,21.857,16.575c-2.758,4.03-5.445,8.1-8.161,12.156-.055.082-.1.169-.118.2l1.485,1.649c1.5,0,3.146-.01,4.8,0a38.882,38.882,0,0,1,4.3.1,4.936,4.936,0,0,1,4.489,5.162,5.169,5.169,0,0,1-5.229,4.523c-4.272.035-8.546.007-12.818.02a4.7,4.7,0,0,0-1.27.157,2.919,2.919,0,0,0-2.194,3.168,3.142,3.142,0,0,0,3.193,2.544c3.446.014,6.894.005,10.34.005.18,0,.361-.009.539.008a1.021,1.021,0,0,1,.983.992,1.032,1.032,0,0,1-.973.953,2.3,2.3,0,0,1-.269.008c-3.554,0-7.109.021-10.664-.008A5.128,5.128,0,0,1,4.96,43.225a5.172,5.172,0,0,1,5.426-4.8c4.272-.016,8.546,0,12.818-.007a3.158,3.158,0,0,0,3.222-2.33,2.944,2.944,0,0,0-2.895-3.522c-2.869-.067-5.742-.017-8.609-.017a3.237,3.237,0,0,1-3.363,1.929,2.969,2.969,0,0,1-2.768-2.016c-.5-1.423.082-2.551,1.386-3.443-.088-.144-.168-.285-.26-.421q-4.092-6.1-8.183-12.2A10.048,10.048,0,0,1,.1,12.179c-.02-.141-.068-.278-.1-.418V9.8c.034-.139.079-.277.1-.417C.82,5.287,3.264,2.393,7.47.8a26.006,26.006,0,0,1,3.3-.8ZM11.852,27.672c.091-.116.154-.188.207-.268q4.09-6.1,8.174-12.2a7.78,7.78,0,0,0,1.3-3.9c.338-5.547-4.86-9.955-10.915-9.27C3.7,2.824-.076,9.93,3.554,15.338q4,5.951,7.981,11.9c.089.133.191.261.316.431Zm-.02,4.863a1.051,1.051,0,0,0,1.093-.934,1.033,1.033,0,0,0-1.053-1.018,1.05,1.05,0,0,0-1.093.934,1.033,1.033,0,0,0,1.053,1.019Z" fill="#4392e2" stroke="#4392e2" stroke-width="0.2"/>
        <path id="Path_18564" data-name="Path 18564" d="M151.544,161.7a3.47,3.47,0,0,1-2.515-2.155h-7.608c-.575,0-12.642.007-13.215,0a1.08,1.08,0,1,1,.009-2.149c2.961-.006,17.414,0,20.376,0h.29l1.454-1.8c-.045-.073-.144-.238-.247-.4-2.686-4.221-5.409-8.418-8.053-12.665a11.844,11.844,0,1,1,21.8-7.79,4.664,4.664,0,0,0,.1.463v2.155a1.249,1.249,0,0,0-.08.251,12.964,12.964,0,0,1-2.2,5.715c-2.55,3.948-5.061,7.92-7.588,11.883-.1.161-.2.325-.3.5.116.089.188.141.257.2a3.236,3.236,0,0,1-1.106,5.7c-.1.032-.2.075-.3.112Zm.536-7.441c.082-.1.141-.164.185-.234q4.077-6.4,8.145-12.807a8.659,8.659,0,0,0,1.342-4.323,9.346,9.346,0,0,0-4.6-8.853,9.207,9.207,0,0,0-9.918-.145,9.617,9.617,0,0,0-3.4,13.46c2.636,4.213,5.334,8.387,8.006,12.577.065.1.139.194.234.326Zm1.076,4.193a1.073,1.073,0,1,0-1.085,1.09,1.086,1.086,0,0,0,1.085-1.09Z" transform="translate(-113.56 -111.327)" fill="#4392e2" stroke="#4392e2" stroke-width="0.2"/>
        <path id="Path_18565" data-name="Path 18565" d="M50.381,55.781a5.386,5.386,0,1,1,5.4-5.358,5.405,5.405,0,0,1-5.4,5.358Zm3.245-5.364a3.231,3.231,0,1,0-3.239,3.211,3.239,3.239,0,0,0,3.239-3.211Z" transform="translate(-38.544 -38.543)" fill="#4392e2" stroke="#4392e2" stroke-width="0.2"/>
        <path id="Path_18566" data-name="Path 18566" d="M274.79,174.888a5.385,5.385,0,1,1-5.386-5.368,5.4,5.4,0,0,1,5.386,5.368Zm-5.389-3.215a3.231,3.231,0,1,0,3.234,3.214A3.236,3.236,0,0,0,269.4,171.673Z" transform="translate(-230.881 -147.795)" fill="#4392e2" stroke="#4392e2" stroke-width="0.2"/>
      </g>
    </g>
  </g>
</svg>
