<svg xmlns="http://www.w3.org/2000/svg" width="16.01" height="16.01" viewBox="0 0 16.01 16.01">
  <g id="noun-phone-call-4971510" transform="translate(-105.167 -34.877)">
    <path id="Path_18184" data-name="Path 18184" d="M116.567,126.214a1.729,1.729,0,0,0-2.444,0l-.066.066a.566.566,0,0,1-.779.034A31.324,31.324,0,0,1,110.967,124a.588.588,0,0,1,.033-.779l.067-.066a1.729,1.729,0,0,0,0-2.445l-1.468-1.467a1.732,1.732,0,0,0-2.445,0l-.98.98a3.484,3.484,0,0,0-.333,4.51,32.176,32.176,0,0,0,6.7,6.7,3.483,3.483,0,0,0,4.51-.333l.98-.98a1.729,1.729,0,0,0,0-2.445Zm.652,3.1-.98.98h0a2.324,2.324,0,0,1-3.01.223,31.047,31.047,0,0,1-6.46-6.461,2.325,2.325,0,0,1,.221-3.01l.98-.98a.576.576,0,0,1,.815,0l1.467,1.467a.576.576,0,0,1,0,.814l-.066.066a1.739,1.739,0,0,0-.076,2.363,32.316,32.316,0,0,0,2.4,2.4,1.72,1.72,0,0,0,2.363-.076l.066-.066a.576.576,0,0,1,.815,0l1.467,1.467h0a.576.576,0,0,1,0,.814Z" transform="translate(0 -81.226)" fill="#191919"/>
    <path id="Path_18185" data-name="Path 18185" d="M348.126,141.033a2.885,2.885,0,0,1,2.881,2.881.576.576,0,0,0,1.153,0,4.038,4.038,0,0,0-4.034-4.034.576.576,0,1,0,0,1.153Z" transform="translate(-234.429 -101.582)" fill="#191919"/>
    <path id="Path_18186" data-name="Path 18186" d="M365.626,34.877a.576.576,0,0,0,0,1.153,5.769,5.769,0,0,1,5.763,5.763.576.576,0,0,0,1.152,0,6.923,6.923,0,0,0-6.915-6.915Z" transform="translate(-251.364)" fill="#191919"/>
  </g>
</svg>
