<svg id="IC_CALENDER" xmlns="http://www.w3.org/2000/svg" width="24" height="24" viewBox="0 0 24 24">
  <rect id="Rectangle_34688" data-name="Rectangle 34688" width="24" height="24" fill="none"/>
  <g id="calendar_1_" data-name="calendar (1)" transform="translate(4 4)">
    <path id="Path_18163" data-name="Path 18163" d="M12.667,1.333H12V.667a.667.667,0,1,0-1.333,0v.667H5.333V.667A.667.667,0,0,0,4,.667v.667H3.333A3.337,3.337,0,0,0,0,4.667v8A3.337,3.337,0,0,0,3.333,16h9.333A3.337,3.337,0,0,0,16,12.667v-8A3.337,3.337,0,0,0,12.667,1.333ZM1.333,4.667a2,2,0,0,1,2-2h9.333a2,2,0,0,1,2,2v.667H1.333Zm11.333,10H3.333a2,2,0,0,1-2-2v-6H14.667v6A2,2,0,0,1,12.667,14.667Z" fill="#666"/>
    <circle id="Ellipse_590" data-name="Ellipse 590" cx="1.013" cy="1.013" r="1.013" transform="translate(6.987 8.983)" fill="#666"/>
    <circle id="Ellipse_591" data-name="Ellipse 591" cx="1.013" cy="1.013" r="1.013" transform="translate(3.66 8.983)" fill="#666"/>
    <circle id="Ellipse_592" data-name="Ellipse 592" cx="1.013" cy="1.013" r="1.013" transform="translate(10.314 8.983)" fill="#666"/>
  </g>
</svg>
