<svg xmlns="http://www.w3.org/2000/svg" width="33.103" height="32.724" viewBox="0 0 33.103 32.724">
  <g id="Group_58077" data-name="Group 58077" transform="translate(-37 -243.978)">
    <g id="Group_57283" data-name="Group 57283" transform="translate(37 245)">
      <ellipse id="Ellipse_5078" data-name="Ellipse 5078" cx="14.833" cy="14.833" rx="14.833" ry="14.833" transform="translate(0 2.036)" fill="#0f8600"/>
      <path id="Path_88140" data-name="Path 88140" d="M-244.718-1012.474c-13.689.069-21.961-22.643-4.369-28.86s26.709,18.2,12.372,26.807" transform="translate(261.71 1042.336)" fill="none" stroke="#191919" stroke-width="2"/>
    </g>
    <g id="IC_SUCCESS_ICON_24PX" data-name="IC_SUCCESS ICON_24PX" transform="translate(43.445 250.064)">
      <rect id="Rectangle_152776" data-name="Rectangle 152776" width="21.624" height="23.288" fill="none"/>
      <path id="done_FILL0_wght600_GRAD0_opsz48" d="M13.165,23.508a.906.906,0,0,1-.361-.072,1,1,0,0,1-.313-.216L8.139,18.866a.987.987,0,0,1,0-1.395.958.958,0,0,1,1.371,0l3.656,3.656,8.562-8.538a.86.86,0,0,1,.661-.289.936.936,0,0,1,.685.289.95.95,0,0,1,.289.7.873.873,0,0,1-.289.673l-9.236,9.26a1,1,0,0,1-.313.216A.906.906,0,0,1,13.165,23.508Z" transform="translate(-4.85 -6.3)" fill="#fff"/>
    </g>
  </g>
</svg>
