<svg id="Group_56259" data-name="Group 56259" xmlns="http://www.w3.org/2000/svg" xmlns:xlink="http://www.w3.org/1999/xlink" width="75.023" height="75.023" viewBox="0 0 75.023 75.023">
  <defs>
    <clipPath id="clip-path">
      <rect id="Rectangle_152618" data-name="Rectangle 152618" width="75.023" height="75.023" rx="8" fill="#fff" stroke="#707070" stroke-width="1"/>
    </clipPath>
  </defs>
  <rect id="Rectangle_152619" data-name="Rectangle 152619" width="75.023" height="75.023" rx="15" fill="#fff0d5"/>
  <g id="IC_Appeal" transform="translate(9.023 10.512)">
    <rect id="Rectangle_152851" data-name="Rectangle 152851" width="60" height="60" fill="none"/>
    <g id="Group_57430" data-name="Group 57430" transform="translate(-694.492 -274.492)">
      <path id="Path_88166" data-name="Path 88166" d="M744.984,287.842V312.5a9.779,9.779,0,0,1-.553,1.568,4.369,4.369,0,0,1-4.124,2.328c-3.187,0-6.373,0-9.559-.007a.521.521,0,0,0-.547.336c-1.019,2.065-2.062,4.119-3.078,6.186a3.56,3.56,0,0,1-2.231,2.076h-.8a3.561,3.561,0,0,1-2.231-2.076c-1.01-2.055-2.048-4.1-3.059-6.151a.573.573,0,0,0-.607-.372q-4.76.019-9.521.006a4.46,4.46,0,0,1-4.562-3.436c-.037-.153-.075-.305-.113-.458V287.842a.977.977,0,0,0,.071-.179,4.237,4.237,0,0,1,2.216-3.1,10.769,10.769,0,0,1,1.555-.568h33.3a1.014,1.014,0,0,0,.179.071,4.307,4.307,0,0,1,3.277,2.57A10.34,10.34,0,0,1,744.984,287.842Zm-20.493,34.8c.2-.332.35-.558.472-.8,1.153-2.3,2.316-4.591,3.442-6.9a1.513,1.513,0,0,1,1.534-.959c3.468.023,6.936.014,10.4.008a2.043,2.043,0,0,0,2.239-2.235q0-11.585,0-23.17a2.02,2.02,0,0,0-2.163-2.182q-15.927,0-31.854,0a2.02,2.02,0,0,0-2.163,2.181q0,11.605,0,23.21a2.787,2.787,0,0,0,.04.556,2.043,2.043,0,0,0,2.2,1.639c3.481,0,6.963.013,10.444-.007a1.467,1.467,0,0,1,1.476.921c1.137,2.32,2.3,4.627,3.46,6.937C724.142,322.082,724.295,322.309,724.492,322.643Z" transform="translate(0 0)" fill="#ff973e"/>
      <path id="Path_88167" data-name="Path 88167" d="M920.379,354.763c0,.92.009,1.84,0,2.76a3.766,3.766,0,1,1-7.531,0q-.021-2.76,0-5.52a3.766,3.766,0,1,1,7.531,0C920.388,352.923,920.379,353.843,920.379,354.763Zm-2.4.027c0-.919.006-1.839,0-2.758a1.366,1.366,0,1,0-2.73,0q-.009,2.718,0,5.436a1.367,1.367,0,1,0,2.731,0C917.983,356.576,917.978,355.683,917.978,354.79Z" transform="translate(-192.119 -59.072)" fill="#ff973e"/>
      <path id="Path_88168" data-name="Path 88168" d="M916.715,553.621a3.769,3.769,0,1,1,3.762-3.759A3.757,3.757,0,0,1,916.715,553.621Zm1.36-3.744a1.365,1.365,0,1,0-2.73-.039,1.365,1.365,0,0,0,2.73.039Z" transform="translate(-192.218 -241.104)" fill="#ff973e"/>
    </g>
  </g>
</svg>
