<svg xmlns="http://www.w3.org/2000/svg" xmlns:xlink="http://www.w3.org/1999/xlink" width="75" height="75" viewBox="0 0 75 75">
  <defs>
    <clipPath id="clip-path">
      <rect id="Rectangle_152835" data-name="Rectangle 152835" width="60" height="60" transform="translate(11892 817)" fill="#fff"/>
    </clipPath>
  </defs>
  <g id="Group_57318" data-name="Group 57318" transform="translate(-462.977 -293.488)">
    <rect id="Rectangle_152619" data-name="Rectangle 152619" width="75" height="75" rx="15" transform="translate(462.977 293.488)" fill="#e3ebfc"/>
    <g id="IC_FRESH_PASSPORT" data-name="IC_FRESH PASSPORT" transform="translate(470 301)">
      <g id="Fresh_Passport_Re-Issue_of_Passport" data-name="Fresh Passport/Re-Issue of Passport" transform="translate(-11892 -817)" clip-path="url(#clip-path)">
        <path id="Union_42" data-name="Union 42" d="M35.926,53.379h0q-3.06-.834-6.117-1.665c-2.145-.578-4.289-1.156-6.438-1.719a4.356,4.356,0,0,0-1.075-.146q-10.04-.013-20.079-.007C.652,49.839,0,49.194,0,47.629V12.016c0-1.592.653-2.237,2.251-2.237q9.02,0,18.043.01c.4,0,.563-.108.665-.506C21.51,7.15,22.088,5.024,22.667,2.9A3.635,3.635,0,0,1,27.428.171Q37.737,2.925,48.044,5.7a3.645,3.645,0,0,1,2.765,4.75Q45.458,30.458,40.09,50.469a3.9,3.9,0,0,1-3.017,2.91Zm-5.717-3.447q2.739.736,5.482,1.467a1.893,1.893,0,0,0,2.661-1.526q5.34-19.909,10.677-39.818A1.884,1.884,0,0,0,47.518,7.43Q37.313,4.689,27.1,1.961a1.931,1.931,0,0,0-2.732,1.571q-.758,2.842-1.512,5.685c-.045.173-.079.35-.128.563h6.322a3.153,3.153,0,0,1,2.678,1.159,2.973,2.973,0,0,0,1.983,1.145,7.683,7.683,0,0,1,1,.279.716.716,0,0,0,.824-.211q2.349-2.224,4.73-4.408a.764.764,0,0,1,.527-.216,11,11,0,0,1,1.268.34L38.709,13.41a8.065,8.065,0,0,1,.994.284,2.71,2.71,0,0,0,3.112-.414,1.267,1.267,0,0,1,1.567-.034c-.449.68-.907,1.332-1.313,2.013a1.6,1.6,0,0,0-.209.816c.015.777.085,1.551.134,2.358-.6-.074-1.087-.167-1.329-.782a8.854,8.854,0,0,0-.685-1.226c-.066-.114-.158-.26-.269-.292-.824-.239-1.654-.457-2.475-.677V21.9a5.5,5.5,0,0,0-.8-.2c-.511-.049-.708-.335-.844-.808-.582-2-1.2-3.986-1.819-5.974-.052-.167-.149-.4-.279-.447-.535-.187-1.092-.313-1.679-.471V28.008c.621.166,1.213.325,1.842.495-.323,1.2-.63,2.347-.941,3.5l-.924-.218v.642q0,6.727,0,13.453a3.721,3.721,0,0,1-3,3.906h0C29.985,49.855,30.1,49.9,30.209,49.932Zm-28.378-1.9H28.773c1.513,0,2.177-.674,2.177-2.209V13.813c0-1.56-.654-2.215-2.22-2.215q-13.164,0-26.331,0H1.831Zm32.92,1.221-1.76-.464c1.1-4.1,2.191-8.18,3.3-12.31l1.76.466c-1.1,4.114-2.194,8.19-3.3,12.307ZM7.31,44.365V42.6H25.472v1.767ZM5.465,26.218a10.941,10.941,0,0,1,10.9-10.974h0A10.929,10.929,0,0,1,16.41,37.1h-.041A10.946,10.946,0,0,1,5.465,26.218ZM16,35.03a.423.423,0,0,0,.779-.006,13.529,13.529,0,0,0,.907-1.751c.379-.956.68-1.942,1.036-2.98H14.135A15.052,15.052,0,0,0,16,35.03Zm4.811-4.751c-.119,0-.3.2-.342.336-.218.693-.376,1.409-.608,2.1s-.53,1.368-.826,2.122a9.179,9.179,0,0,0,5.436-4.57h0l-1.673,0C22.122,30.263,21.466,30.266,20.811,30.279Zm-7.192,4.51c-.442-1.437-.864-2.841-1.316-4.237a.53.53,0,0,0-.394-.277c-.605-.029-1.213-.012-1.82-.012H8.307A9.069,9.069,0,0,0,13.619,34.789Zm7.259-6.36h4.278a7.948,7.948,0,0,0,0-4.5H20.878Zm-7.116-4.543V28.42h5.248c0-1.445.006-2.861-.012-4.276,0-.086-.2-.244-.3-.245-1.1-.011-2.206-.013-3.34-.013ZM7.837,23.9a.38.38,0,0,0-.271.232A8.048,8.048,0,0,0,7.62,28.42h4.267V23.89H10.269C9.458,23.889,8.648,23.891,7.837,23.9ZM20.5,21.853c.028.09.151.212.229.214,1.22.015,2.441.01,3.689.01a8.675,8.675,0,0,0-5.25-4.506C19.6,18.993,20.044,20.425,20.5,21.853Zm-4.453-4.606a14.727,14.727,0,0,0-1.913,4.815h4.511v0a14.175,14.175,0,0,0-1.908-4.817.385.385,0,0,0-.69,0Zm-7.72,4.8h3.821c.514-1.523,1.01-2.993,1.522-4.515A9.092,9.092,0,0,0,8.323,22.049ZM37.238,32.963l.939-3.517,1.755.474c-.317,1.186-.62,2.316-.938,3.5Zm5.191-5.2c-.612-.164-1.144-.3-1.728-.46.157-.6.307-1.157.463-1.749L42.88,26c-.147.582-.291,1.14-.45,1.765Zm-5.188-1.379c.157-.594.3-1.136.459-1.745l1.722.443c-.155.593-.3,1.148-.455,1.759Zm-3.456-.913.469-1.761c.614.167,1.143.312,1.716.466-.157.594-.3,1.143-.457,1.745Zm.468-1.761h0Z" transform="translate(11896.512 820.31)" fill="#4365d6"/>
      </g>
    </g>
  </g>
</svg>
