<svg xmlns="http://www.w3.org/2000/svg" width="75" height="75" viewBox="0 0 75 75">
  <g id="Group_58209" data-name="Group 58209" transform="translate(-444 -663)">
    <rect id="Rectangle_152619" data-name="Rectangle 152619" width="75" height="75" rx="15" transform="translate(444 663)" fill="#e3ebfc"/>
    <g id="IC_Background_Verification_for_GEP" data-name="IC_Background Verification for GEP" transform="translate(452 671)">
      <rect id="Rectangle_152839" data-name="Rectangle 152839" width="60" height="60" fill="none"/>
      <path id="Union_52" data-name="Union 52" d="M12645.338-3062.5a3.815,3.815,0,0,1-3.886-3.731v-24.225a3.687,3.687,0,0,1,1.139-2.64l12.311-11.823a3.939,3.939,0,0,1,2.747-1.093h16.331a3.814,3.814,0,0,1,3.885,3.731v.655l5.821,1.281a.624.624,0,0,1,.5.6v4.939c0,2.784-1.859,4.779-3.632,6.032a15.351,15.351,0,0,1-2.687,1.5v21.036a3.814,3.814,0,0,1-3.885,3.731Zm11-33.149a4.02,4.02,0,0,1-4.1,3.931l-8.871,1,0,.035a1.417,1.417,0,0,0-.022.231v24.225a1.96,1.96,0,0,0,2,1.918h28.642a1.96,1.96,0,0,0,2-1.918v-20.932a15.5,15.5,0,0,1-2.925-1.6c-1.773-1.253-3.635-3.248-3.635-6.039v-4.939a.623.623,0,0,1,.5-.6l6.061-1.335v-.6a1.96,1.96,0,0,0-2-1.918h-16.331a1.751,1.751,0,0,0-.27.028h-.008Zm20.466-4.945-6.1,1.342v4.45a6.349,6.349,0,0,0,3.108,5.044,12.748,12.748,0,0,0,2.991,1.577,12.81,12.81,0,0,0,2.991-1.584,6.351,6.351,0,0,0,3.108-5.04v-4.448l-6.1-1.344Zm-32.127,8.06,7.565-1a2.166,2.166,0,0,0,2.207-2.12l1.041-7.263Zm25.457,24.407h-19.23a.649.649,0,0,1-.458-.177.605.605,0,0,1-.192-.438.6.6,0,0,1,.192-.438.651.651,0,0,1,.458-.179h19.23a.658.658,0,0,1,.458.179.6.6,0,0,1,.189.438.606.606,0,0,1-.189.438.655.655,0,0,1-.45.177Zm-19.23-4.374a.66.66,0,0,1-.458-.179.6.6,0,0,1-.192-.438.6.6,0,0,1,.192-.438.649.649,0,0,1,.458-.177h19.23a.656.656,0,0,1,.458.177.6.6,0,0,1,.189.438.6.6,0,0,1-.189.438.667.667,0,0,1-.458.179Zm0-1.232v0Zm13.893-3.938-8.384-.019a.73.73,0,0,1-.123-.01.657.657,0,0,1-.481-.17.6.6,0,0,1-.2-.454v-4.735a1.716,1.716,0,0,1,1.176-1.458,5.43,5.43,0,0,1,2.245-.433h3.1a5.424,5.424,0,0,1,2.243.433,1.718,1.718,0,0,1,1.178,1.458v4.758a.612.612,0,0,1-.191.447.653.653,0,0,1-.469.177.466.466,0,0,1-.07.006Zm-7.169-5.844-.288.109c-.386.177-.446.34-.446.347v4.1l7.377.019v-4.115c0-.007-.061-.17-.447-.347a4.305,4.305,0,0,0-1.692-.312h-3.1Zm.238-5.876a2.675,2.675,0,0,1,2.716-2.61,2.675,2.675,0,0,1,2.716,2.61,2.673,2.673,0,0,1-2.716,2.607A2.673,2.673,0,0,1,12657.862-3089.39Zm1.283,0a1.4,1.4,0,0,0,1.433,1.375,1.4,1.4,0,0,0,1.432-1.375,1.393,1.393,0,0,0-1.432-1.375A1.394,1.394,0,0,0,12659.146-3089.39Zm13.543-4.115a.6.6,0,0,1-.168-.454.61.61,0,0,1,.225-.434.66.66,0,0,1,.481-.142.643.643,0,0,1,.439.233l1.127,1.272,5.213-4.261a.64.64,0,0,1,.391-.152.639.639,0,0,1,.629.391.6.6,0,0,1-.187.7l-6.187,5.061Z" transform="translate(-12632.818 3114.255)" fill="#4365d6" stroke="#4365d6" stroke-width="0.8"/>
    </g>
  </g>
</svg>
