<svg xmlns="http://www.w3.org/2000/svg" width="75" height="75" viewBox="0 0 75 75">
  <g id="Group_58210" data-name="Group 58210" transform="translate(-444 -663)">
    <rect id="Rectangle_152619" data-name="Rectangle 152619" width="75" height="75" rx="15" transform="translate(444 663)" fill="#e3ebfc"/>
    <g id="IC_Line_of_Control_LoC_Permit" data-name="IC_Line of Control (LoC) Permit" transform="translate(452 671)">
      <rect id="Rectangle_152840" data-name="Rectangle 152840" width="60" height="60" fill="none"/>
      <path id="Union_48" data-name="Union 48" d="M30.85,44.068c-.253-.055-.513-.1-.763-.151-.554-.1-1.128-.209-1.686-.37a12.118,12.118,0,0,1-8.513-10.059,12.726,12.726,0,0,1,.3-4.588,11.884,11.884,0,0,1,4.979-7.024,12.716,12.716,0,0,1,4.229-1.793A11.449,11.449,0,0,1,31.9,19.8a12.155,12.155,0,0,1,7.767,2.87,11.832,11.832,0,0,1,4.158,7.261c.037.236.079.482.123.718.013.089.031.178.043.267l.008.034V32.99l-.018.051a.951.951,0,0,1-.028.1,1.09,1.09,0,0,0-.034.126,11.938,11.938,0,0,1-8.294,10.189,11.711,11.711,0,0,1-1.844.445c-.269.051-.55.1-.816.161l-.046.01H31.106l-.037.038Zm.568-21.606a9.211,9.211,0,0,0-6.511,3.076,9.633,9.633,0,0,0-2.487,6.881,9.542,9.542,0,0,0,9.348,9.029c.127,0,.253,0,.379-.007a9.509,9.509,0,0,0,9.218-9.755,9.655,9.655,0,0,0-2.919-6.59,9.48,9.48,0,0,0-6.627-2.645C31.686,22.452,31.551,22.455,31.418,22.462Zm-14.2,16.207H5.166a5.127,5.127,0,0,1-3.732-1.44A5.148,5.148,0,0,1,0,33.482V5.153A5.17,5.17,0,0,1,1.077,1.834,5.238,5.238,0,0,1,4.03.089a.214.214,0,0,1,.031-.02L4.163,0H27.111l.054.014c.085.024.175.045.26.069.185.048.376.1.565.157a4.819,4.819,0,0,1,2.48,1.793,5.126,5.126,0,0,1,.939,2.987c.013,2.84.009,5.724,0,8.516v2.128a1.329,1.329,0,1,1-2.641.007c0-.079,0-.157,0-.236V13.08c0-2.57,0-5.231,0-7.845a3.76,3.76,0,0,0-.062-.831,2.266,2.266,0,0,0-2.3-1.776c-.4,0-.834-.007-1.358-.007-.343,0-.685,0-1.027,0H5.125A2.284,2.284,0,0,0,2.723,4.3a3.105,3.105,0,0,0-.1.807c0,9.433-.008,19.01,0,28.456a2.311,2.311,0,0,0,2.5,2.481q2.223.005,4.451,0h7.722a2.527,2.527,0,0,1,.561.048,1.278,1.278,0,0,1,.944,1.314,1.3,1.3,0,0,1-1.092,1.242,2.317,2.317,0,0,1-.329.02Zm11.9-2.231c-1.173-1.16-2.357-2.347-3.517-3.524a1.412,1.412,0,0,1-.42-1,1.286,1.286,0,0,1,.4-.91,1.267,1.267,0,0,1,.893-.37,1.429,1.429,0,0,1,1,.438c.77.753,1.536,1.53,2.281,2.279l.226.229c.015.014.028.027.041.041,1.492-1.707,2.918-3.343,4.346-4.975.093-.106.185-.215.278-.321.235-.274.482-.558.735-.828a1.382,1.382,0,0,1,1.016-.476,1.268,1.268,0,0,1,.831.318,1.3,1.3,0,0,1,.461.893,1.38,1.38,0,0,1-.352,1.009c-2.135,2.453-4.224,4.848-6.213,7.113a1.368,1.368,0,0,1-1.03.517A1.386,1.386,0,0,1,29.122,36.438ZM11.211,33.263c-1.666,0-3.127,0-4.461,0A1.314,1.314,0,0,1,5.4,31.977a1.264,1.264,0,0,1,.355-.927,1.388,1.388,0,0,1,1-.407c.557,0,1.167-.007,1.912-.007.852,0,1.7,0,2.55,0,.876,0,1.748,0,2.62,0,.7,0,1.27,0,1.8.007a1.383,1.383,0,0,1,1.2.65,1.321,1.321,0,0,1-1.167,1.971Zm0-2.21v0ZM6.64,27.847a1.212,1.212,0,0,1-.886-.387,1.354,1.354,0,0,1-.359-.989A1.3,1.3,0,0,1,6.736,25.24c.7,0,1.458-.007,2.4-.007.866,0,1.731,0,2.6,0l.4,0H15c.941,0,1.7,0,2.4,0a1.292,1.292,0,0,1,1.388,1.081,1.36,1.36,0,0,1-.294,1.1,1.218,1.218,0,0,1-.941.431c-1.807.007-3.644.01-5.454.01S8.45,27.854,6.64,27.847Zm2.734-5.4a1.284,1.284,0,0,1-.914-.4A1.392,1.392,0,0,1,8.1,21.035c.006-.229.006-.466.009-.7a11.129,11.129,0,0,1,.172-2.224A4.611,4.611,0,0,1,9.911,15.5a4.885,4.885,0,0,1,2.9-1.061c.328-.01.677-.017,1.1-.017.3,0,.615,0,.913.007.161,0,.329,0,.493,0v-.007l.414,0c.548,0,1.092,0,1.636,0,.359,0,.656,0,.941,0a4.906,4.906,0,0,1,5.009,4.9c.021.6.014,1.2,0,1.711a1.334,1.334,0,0,1-1.31,1.42H22a1.327,1.327,0,0,1-1.317-1.406c-.006-.287-.006-.578,0-.855s0-.558,0-.835a2.257,2.257,0,0,0-2.326-2.3c-.821,0-1.678-.007-2.542-.007s-1.783,0-2.72.007a2.3,2.3,0,0,0-2.368,2.32c-.007.3,0,.606,0,.9,0,.257,0,.52,0,.78a1.325,1.325,0,0,1-1.306,1.4Zm6.309-9.019A4,4,0,0,1,11.7,9.419a4.015,4.015,0,0,1,4-4.013h0a4.013,4.013,0,1,1,0,8.027ZM14.318,9.416a1.383,1.383,0,0,0,1.375,1.393H15.7a1.387,1.387,0,0,0,0-2.775H15.7A1.4,1.4,0,0,0,14.318,9.416Z" transform="translate(9.862 9.532)" fill="#4365d6"/>
    </g>
  </g>
</svg>
